<svg width="196" height="57" viewBox="0 0 196 57" fill="none" xmlns="http://www.w3.org/2000/svg">
<path d="M59.8654 39.9879V16.6286H66.4938V18.7314C66.7986 18.1219 67.3471 17.5276 68.1395 16.9486C68.9318 16.3695 69.8613 16.08 70.928 16.08C72.7565 16.08 74.2955 16.7352 75.545 18.0457L74.6764 24.0798C73.3965 23.0132 72.0098 22.4798 70.5165 22.4798C67.8347 22.4798 66.4938 24.095 66.4938 27.3254V39.9879H59.8654Z" fill="#1D2C48"/>
<path d="M86.5721 40.5365C83.2199 40.5365 80.5685 39.4546 78.6181 37.2908C76.6981 35.1271 75.7382 32.1405 75.7382 28.3311C75.7382 24.5522 76.7134 21.5656 78.6638 19.3714C80.6142 17.1771 83.2503 16.08 86.5721 16.08C89.8635 16.08 92.4691 17.1771 94.3891 19.3714C96.3395 21.5656 97.3147 24.5522 97.3147 28.3311C97.3147 32.1405 96.3547 35.1271 94.4348 37.2908C92.5148 39.4546 89.894 40.5365 86.5721 40.5365ZM86.5721 34.1366C87.8826 34.1366 88.8883 33.6338 89.5892 32.6281C90.3206 31.592 90.6863 30.1596 90.6863 28.3311C90.6863 26.5026 90.3206 25.0702 89.5892 24.0341C88.8883 22.9979 87.8826 22.4798 86.5721 22.4798C85.2922 22.4798 84.2713 22.9979 83.5094 24.0341C82.7475 25.0702 82.3666 26.5026 82.3666 28.3311C82.3666 30.1596 82.7475 31.592 83.5094 32.6281C84.2713 33.6338 85.2922 34.1366 86.5721 34.1366Z" fill="#1D2C48"/>
<path d="M115.658 39.9879V37.8394C114.195 39.6374 112.062 40.5365 109.258 40.5365C108.313 40.5365 107.399 40.3841 106.515 40.0793C105.631 39.8051 104.778 39.3479 103.955 38.7079C103.132 38.068 102.462 37.1537 101.944 35.9652C101.456 34.7766 101.212 33.39 101.212 31.8053V16.6286H107.841V28.7882C107.841 30.6472 108.115 32.0034 108.664 32.8567C109.212 33.71 110.187 34.1366 111.589 34.1366C112.991 34.1366 114.012 33.71 114.652 32.8567C115.323 32.0034 115.658 30.6777 115.658 28.8797V16.6286H122.286V39.9879H115.658Z" fill="#1D2C48"/>
<path d="M134.603 40.5365C130.672 40.5365 128.706 38.4032 128.706 34.1366V22.4341H125.506V16.6286H128.706V10.1373L135.289 6.98314V16.6286H140.363V22.4341H135.289V33.4967C135.289 33.9233 135.411 34.2585 135.655 34.5023C135.929 34.7157 136.249 34.8223 136.615 34.8223C137.956 34.8223 139.296 34.5176 140.637 33.9081L139.906 39.4851C138.474 40.186 136.706 40.5365 134.603 40.5365Z" fill="#1D2C48"/>
<path d="M147.694 14.3886C146.658 14.3886 145.759 14.0229 144.997 13.2915C144.235 12.5297 143.854 11.6306 143.854 10.5945C143.854 9.55831 144.22 8.67453 144.951 7.94312C145.713 7.21171 146.627 6.84601 147.694 6.84601C148.761 6.84601 149.66 7.21171 150.391 7.94312C151.122 8.64405 151.488 9.52783 151.488 10.5945C151.488 11.6306 151.122 12.5297 150.391 13.2915C149.66 14.0229 148.761 14.3886 147.694 14.3886ZM144.357 39.9879V16.6286H150.985V39.9879H144.357Z" fill="#1D2C48"/>
<path d="M164.191 22.4341V39.9879H157.562V22.4341H154.454V16.6286H157.562V13.1544C157.562 9.34498 159.558 7.44028 163.551 7.44028C165.775 7.44028 167.619 7.83646 169.082 8.62881V13.9772C167.802 13.4592 166.69 13.2001 165.745 13.2001C164.709 13.2001 164.191 13.642 164.191 14.5258V16.6286H169.082V22.4341H164.191Z" fill="#1D2C48"/>
<path d="M175.601 48.8562L179.121 39.7136L170.298 16.6286H177.155L181.909 29.1082C182.244 30.0225 182.488 30.7539 182.64 31.3024C182.793 30.7539 183.037 30.0225 183.372 29.1082L188.08 16.6286H194.892L182.458 48.8562H175.601Z" fill="#1D2C48"/>
<path d="M24.0346 49.8615L9.39256 35.6611L27.4552 35.6611L32.7743 41.0201L35.2323 38.5334L39.9202 56.8241L21.3034 52.6244L24.0346 49.8615Z" fill="url(#paint0_linear)"/>
<path d="M25.6484 35.7893C35.8104 35.7893 44.0483 27.853 44.0483 17.8946C44.0483 7.93626 35.8104 0 25.6484 0H6.69089L0 12.1574H25.9272C29.1606 12.1574 31.7817 14.4529 31.7817 17.6214C31.7817 20.79 29.1606 23.3587 25.9272 23.3587H16.1696L9.47876 35.7893H25.6484Z" fill="url(#paint1_linear)"/>
<defs>
<linearGradient id="paint0_linear" x1="17.2063" y1="33.7245" x2="35.101" y2="54.3722" gradientUnits="userSpaceOnUse">
<stop stop-color="#FF7CF7"/>
<stop offset="1" stop-color="#FFCBFC"/>
</linearGradient>
<linearGradient id="paint1_linear" x1="-11.7003" y1="-2.06477" x2="51.6192" y2="11.7003" gradientUnits="userSpaceOnUse">
<stop stop-color="#FC59F3"/>
<stop offset="0.424303" stop-color="#E861E0"/>
<stop offset="1" stop-color="#AE32A7"/>
</linearGradient>
</defs>
</svg>
