<svg width="26" height="25" viewBox="0 0 26 25" fill="none" xmlns="http://www.w3.org/2000/svg">
<path fill-rule="evenodd" clip-rule="evenodd" d="M13 0C5.81768 0 0 5.73465 0 12.8145C0 18.4783 3.72683 23.2768 8.89012 24.976C9.53652 25.094 9.77594 24.7007 9.77594 24.3545C9.77594 24.0478 9.76795 23.2454 9.75997 22.1755C6.14487 22.9464 5.37876 20.4606 5.37876 20.4606C4.78821 18.9818 3.93432 18.5806 3.93432 18.5806C2.75322 17.7861 4.0221 17.8018 4.0221 17.8018C5.3229 17.8962 6.01719 19.1234 6.01719 19.1234C7.17434 21.0821 9.0577 20.5157 9.79988 20.1853C9.91958 19.3593 10.2548 18.793 10.6219 18.4704C7.74095 18.1558 4.70841 17.0545 4.70841 12.1458C4.70841 10.7456 5.21117 9.60494 6.04911 8.70816C5.91344 8.37777 5.46654 7.07981 6.16882 5.31772C6.16882 5.31772 7.26212 4.9716 9.74401 6.63142C10.7815 6.34823 11.8907 6.20663 13 6.19877C14.1013 6.20663 15.2185 6.34823 16.256 6.63142C18.7379 4.9716 19.8312 5.31772 19.8312 5.31772C20.5414 7.07981 20.0945 8.38564 19.9589 8.70816C20.7888 9.60494 21.2916 10.7456 21.2916 12.1458C21.2916 17.0702 18.2511 18.1479 15.3542 18.4704C15.8171 18.8638 16.24 19.6504 16.24 20.8461C16.24 22.561 16.2241 23.9376 16.2241 24.3624C16.2241 24.7085 16.4555 25.1019 17.1179 24.976C22.2812 23.2768 26 18.4783 26 12.8223C26 5.73464 20.1823 0 13 0Z" fill="black"/>
</svg>
