<svg xmlns="http://www.w3.org/2000/svg" width="638" height="171" fill="none">
  <path fill="#1D2C48" d="M177.049 122.046V52.962h19.604v6.219c.901-1.803 2.523-3.56 4.867-5.273 2.343-1.712 5.092-2.569 8.246-2.569 5.408 0 9.96 1.938 13.655 5.814l-2.569 17.846c-3.785-3.155-7.886-4.732-12.303-4.732-7.931 0-11.896 4.776-11.896 14.33v37.449h-19.604ZM256.033 123.669c-9.914 0-17.755-3.2-23.523-9.599-5.679-6.4-8.518-15.232-8.518-26.498 0-11.176 2.885-20.009 8.653-26.498 5.768-6.49 13.564-9.734 23.388-9.734 9.734 0 17.44 3.244 23.119 9.734 5.768 6.489 8.652 15.322 8.652 26.498 0 11.266-2.839 20.098-8.517 26.498-5.679 6.399-13.429 9.599-23.254 9.599Zm0-18.928c3.876 0 6.85-1.487 8.923-4.461 2.163-3.064 3.245-7.3 3.245-12.708s-1.082-9.644-3.245-12.709c-2.073-3.064-5.047-4.596-8.923-4.596-3.785 0-6.804 1.532-9.058 4.596-2.253 3.065-3.379 7.3-3.379 12.709 0 5.407 1.126 9.644 3.379 12.708 2.254 2.974 5.273 4.461 9.058 4.461ZM342.053 122.046v-6.354c-4.326 5.318-10.635 7.977-18.927 7.977-2.795 0-5.498-.451-8.113-1.352-2.614-.811-5.137-2.164-7.571-4.056-2.434-1.893-4.415-4.597-5.947-8.112-1.443-3.515-2.165-7.616-2.165-12.302V52.962h19.605v35.962c0 5.497.81 9.508 2.434 12.032 1.621 2.524 4.504 3.785 8.651 3.785 4.146 0 7.165-1.261 9.058-3.785 1.985-2.524 2.975-6.444 2.975-11.762V52.962h19.602v69.084h-19.602ZM398.082 123.669c-11.625 0-17.44-6.309-17.44-18.928v-34.61h-9.464V52.963h9.464V33.764l19.469-9.328v28.526h15.006v17.17h-15.006v32.717c0 1.261.361 2.253 1.083 2.974.81.631 1.756.946 2.839.946 3.966 0 7.929-.901 11.895-2.704l-2.162 16.494c-4.235 2.073-9.464 3.11-15.684 3.11ZM436.799 46.337c-3.064 0-5.723-1.081-7.977-3.244-2.253-2.253-3.38-4.912-3.38-7.977 0-3.064 1.082-5.678 3.244-7.84 2.254-2.164 4.957-3.245 8.113-3.245 3.155 0 5.814 1.081 7.976 3.244 2.162 2.073 3.244 4.687 3.244 7.842 0 3.064-1.082 5.723-3.244 7.976-2.162 2.163-4.821 3.244-7.976 3.244Zm-9.87 75.709V52.962h19.603v69.084h-19.603ZM485.587 70.132v51.914h-19.604V70.131h-9.192V52.963h9.192V42.687c0-11.266 5.903-16.899 17.712-16.899 6.577 0 12.031 1.172 16.357 3.515v15.818c-3.785-1.532-7.074-2.299-9.869-2.299-3.064 0-4.596 1.307-4.596 3.921v6.219h14.465v17.17h-14.465ZM519.332 148.274l10.41-27.039-26.093-68.273h20.279l14.06 36.908c.99 2.704 1.712 4.867 2.162 6.49.452-1.623 1.174-3.786 2.164-6.49l13.924-36.908h20.146l-36.773 95.312h-20.279Z"/>
  <g opacity=".2">
    <path stroke="url(#a)" stroke-width=".975" d="M83.25 115.901c29.309 0 53.07-22.89 53.07-51.613 0-28.722-23.761-51.612-53.07-51.612H28.572L9.273 47.74h74.78c9.327 0 16.887 6.62 16.887 15.76 0 9.138-7.56 16.547-16.886 16.547H55.91L36.612 115.9H83.25Z"/>
    <path fill="#fff" d="m38.337 115.536.643-1.057h42.182l2.772 2.835h-43.75l-1.847-1.778Z"/>
  </g>
  <g opacity=".48">
    <path stroke="url(#b)" stroke-width=".988" d="M79.81 111.999c29.7 0 53.777-23.195 53.777-52.3 0-29.105-24.077-52.3-53.777-52.3H24.403L4.848 42.93h75.777c9.45 0 17.11 6.709 17.11 15.97 0 9.26-7.66 16.767-17.11 16.767H52.106L32.551 112H79.81Z"/>
    <path fill="#fff" d="m34.3 111.63.65-1.071h42.744l2.81 2.872H36.17l-1.872-1.801Z"/>
  </g>
  <path fill="url(#c)" d="m71.358 150.328-43.472-42.161h53.628l15.792 15.911 7.298-7.383L118.523 171l-55.274-12.469 8.11-8.203Z"/>
  <path fill="url(#d)" d="M76.15 108.548c30.171 0 54.629-23.563 54.629-53.13 0-29.566-24.458-53.128-54.63-53.128H19.866L0 38.385h76.978c9.6 0 17.382 6.815 17.382 16.223 0 9.407-7.782 17.034-17.382 17.034h-28.97l-19.866 36.906H76.15Z"/>
  <path fill="url(#e)" d="M595.537 62.648c-3.204 0-5.958-.774-8.262-2.322-2.268-1.584-3.96-3.744-5.076-6.48l5.94-2.376c1.584 3.348 4.086 5.022 7.506 5.022 1.908 0 3.474-.468 4.698-1.404 1.224-.972 1.836-2.34 1.836-4.104 0-1.62-.54-2.952-1.62-3.996s-2.718-1.566-4.914-1.566h-3.294v-6.156h3.294c1.548 0 2.79-.432 3.726-1.296.972-.864 1.458-1.998 1.458-3.402 0-1.476-.468-2.646-1.404-3.51-.9-.9-2.196-1.35-3.888-1.35-2.7 0-4.734 1.278-6.102 3.834l-5.94-2.268c1.044-2.376 2.61-4.248 4.698-5.616 2.088-1.404 4.572-2.106 7.452-2.106 3.42 0 6.228 1.008 8.424 3.024 2.232 1.98 3.348 4.446 3.348 7.398 0 3.708-1.584 6.426-4.752 8.154 1.836.72 3.312 1.836 4.428 3.348 1.116 1.512 1.674 3.312 1.674 5.4 0 3.708-1.224 6.606-3.672 8.694-2.412 2.052-5.598 3.078-9.558 3.078Z"/>
  <defs>
    <linearGradient id="a" x1="41.792" x2="129.96" y1="3.23" y2="90.029" gradientUnits="userSpaceOnUse">
      <stop stop-color="#FF7CF7"/>
      <stop offset="1" stop-color="#FFCBFC"/>
    </linearGradient>
    <linearGradient id="b" x1="37.799" x2="127.142" y1="-2.174" y2="85.783" gradientUnits="userSpaceOnUse">
      <stop stop-color="#FF7CF7"/>
      <stop offset="1" stop-color="#FFCBFC"/>
    </linearGradient>
    <linearGradient id="c" x1="51.085" x2="104.214" y1="102.418" y2="163.72" gradientUnits="userSpaceOnUse">
      <stop stop-color="#FF7CF7"/>
      <stop offset="1" stop-color="#FFCBFC"/>
    </linearGradient>
    <linearGradient id="d" x1="-34.738" x2="153.257" y1="-3.84" y2="37.028" gradientUnits="userSpaceOnUse">
      <stop stop-color="#FC59F3"/>
      <stop offset=".424" stop-color="#E861E0"/>
      <stop offset="1" stop-color="#AE32A7"/>
    </linearGradient>
    <linearGradient id="e" x1="594.579" x2="656.362" y1="-7.933" y2="25.292" gradientUnits="userSpaceOnUse">
      <stop stop-color="#FF7CF7"/>
      <stop offset="1" stop-color="#FFCBFC"/>
    </linearGradient>
  </defs>
</svg>