<?xml version="1.0" encoding="UTF-8"?>
<svg width="340px" height="80px" viewBox="0 0 340 80" version="1.1" xmlns="http://www.w3.org/2000/svg" xmlns:xlink="http://www.w3.org/1999/xlink">
    <title>logo-black-340-80</title>
    <g id="logo-black-340-80" stroke="none" stroke-width="1" fill="none" fill-rule="evenodd">
        <rect fill="#FFFFFF" x="0" y="0" width="340" height="80"></rect>
        <path d="M130.651701,0 C109.343154,0 92.0073859,17.9441633 92.0073859,40 C92.0073859,62.0558367 109.343154,80 130.651701,80 C151.958838,80 169.294606,62.0558367 169.294606,40 C169.294606,17.9441633 151.958838,0 130.651701,0 L130.651701,0 Z M301.357095,0 C322.664232,0 340,17.9441633 340,40 C340,62.0558367 322.664232,80 301.357095,80 C280.048548,80 262.71278,62.0558367 262.71278,40 C262.71278,17.9441633 280.048548,0 301.357095,0 Z M130.651701,12.0646828 C145.532697,12.0646828 157.640083,24.5964403 157.640083,40 C157.640083,55.4035597 145.532697,67.9353172 130.651701,67.9353172 C115.769295,67.9353172 103.661909,55.4035597 103.661909,40 C103.661909,24.5964403 115.769295,12.0646828 130.651701,12.0646828 Z M74.7717842,2.83075617 L74.7717842,76.4304165 L62.0746888,76.4304165 L62.0746888,2.83075617 L74.7717842,2.83075617 Z M12.6970954,2.83075617 L12.6970954,76.4304165 L0,76.4304165 L0,2.83075617 L12.6970954,2.83075617 Z M244.06639,2.83075617 L244.06639,76.4304165 L231.369295,76.4304165 L231.369295,15.5691589 L201.742739,15.5691589 L201.742739,76.4304165 L189.045643,76.4304165 L189.045643,2.83075617 L244.06639,2.83075617 Z M301.357095,12.0646828 C316.238091,12.0646828 328.345477,24.5964403 328.345477,40 C328.345477,55.4035597 316.238091,67.9353172 301.357095,67.9353172 C286.474689,67.9353172 274.367303,55.4035597 274.367303,40 C274.367303,24.5964403 286.474689,12.0646828 301.357095,12.0646828 Z M43.7344398,2.83075617 L43.7344398,52.3689891 L31.0373444,52.3689891 L31.0373444,2.83075617 L43.7344398,2.83075617 Z" id="Fill-1" fill="#000F1E"></path>
    </g>
</svg>