<svg width="24" height="24" viewBox="0 0 24 24" fill="none" xmlns="http://www.w3.org/2000/svg">
<path d="M8 6.74285C8 6.74285 9.12554 6.25978 10.1818 6.15281M16 6.74285C16 6.74285 14.8745 6.25978 13.8182 6.15281M10.1818 6.15281L9.27273 4C6.54545 4.91428 5.63636 5.37143 3.81818 6.74285C3.81818 6.74285 2 13.1429 2 16.8C2 16.8 4.72727 19.0857 6.54545 20C6.54545 20 7.90909 18.6286 8.36364 17.2509M10.1818 6.15281C11.4413 6.02526 12.5587 6.02526 13.8182 6.15281M13.8182 6.15281L14.7273 4C17.4545 4.91428 18.3636 5.37143 20.1818 6.74285C20.1818 6.74285 22 13.1429 22 16.8C22 16.8 19.2727 19.0857 17.4545 20C17.4545 20 16.0909 18.6286 15.6364 17.2509M5.63636 16.8C6.57916 16.9896 7.48284 17.1399 8.36364 17.2509M18.3636 16.8C17.4208 16.9896 16.5172 17.1399 15.6364 17.2509M8.36364 17.2509C10.8486 17.564 13.1514 17.564 15.6364 17.2509" stroke="black" stroke-width="2" stroke-linecap="round" stroke-linejoin="round"/>
<circle cx="15.5" cy="12.5" r="1.5" fill="black"/>
<circle cx="8.5" cy="12.5" r="1.5" fill="black"/>
</svg>
